<?xml version="1.0" ?><!DOCTYPE svg  PUBLIC '-//W3C//DTD SVG 1.1//EN'  'http://www.w3.org/Graphics/SVG/1.1/DTD/svg11.dtd'><svg height="512px" style="enable-background:new 0 0 512 512;" version="1.1" viewBox="0 0 512 512" width="512px" xml:space="preserve" xmlns="http://www.w3.org/2000/svg" xmlns:xlink="http://www.w3.org/1999/xlink"><g id="_x36_63_x2C__Internet_x2C__layout_x2C__page_x2C__site_x2C__static"><g><path d="M401.823,186.322c-1.306,8.709-2.638,17.447-3.915,26.129    c-6.439,0-12.88,0-19.319,0c-1.306-8.709-2.611-17.42-3.929-26.129c-3.307-0.625-6.541-1.504-9.704-2.581    c-5.489,6.864-10.979,13.759-16.454,20.653l-2.539-1.476c-4.71-2.724-9.447-5.446-14.172-8.171    c3.234-8.199,6.439-16.397,9.66-24.598c-1.29-1.105-2.525-2.269-3.674-3.432c-1.176-1.164-2.326-2.412-3.447-3.689    c-8.184,3.234-16.398,6.44-24.568,9.674c-3.22-5.561-6.439-11.148-9.646-16.71c6.864-5.475,13.759-10.95,20.653-16.454    c-1.121-3.206-1.958-6.384-2.611-9.702c-8.709-1.306-17.419-2.64-26.128-3.915c0-6.47,0-12.881,0-19.321    c-5.192-6.155-181.187-1.077-204.948-1.077v190.422h328.614V188.932C408.746,187.287,409.795,186.975,401.823,186.322     M437.173,343.521V199.088c-9.107-0.282-6.468-0.424-14.512-1.39v101.737c0,1.928-1.561,3.488-3.488,3.488H83.592    c-1.928,0-3.488-1.561-3.488-3.488V102.033c0-1.929,1.56-3.488,3.488-3.488h235.49l0.197-0.768    c0.441-1.615,0.924-3.234,1.49-4.822l-10.994-8.738H83.849c-4.794,0-9.164,1.959-12.327,5.106    c-3.164,3.178-5.135,7.548-5.135,12.341v241.857c0,4.796,1.971,9.165,5.135,12.313c3.164,3.178,7.533,5.136,12.327,5.136h335.877    c4.794,0,9.163-1.958,12.313-5.136C435.216,352.687,437.173,348.317,437.173,343.521z M328.827,90.486l-4.894,18.357l-2.229,0.34    h-0.057l-22.64,3.404v7.318l22.64,3.404h0.086l2.199,0.341c1.63,6.128,3.262,12.229,4.894,18.356l-19.704,15.689l3.66,6.326    c7.816-3.064,15.66-6.128,23.478-9.222l13.419,13.421c-3.064,7.829-6.143,15.658-9.222,23.49l6.327,3.658    c4.71-5.9,9.504-12.369,14.384-18.042l1.319-1.674l18.355,4.908l3.744,24.909h7.305c1.25-8.285,2.498-16.598,3.747-24.909    c6.113-1.618,12.241-3.265,18.354-4.908l15.703,19.716l6.342-3.658c-3.094-7.832-6.157-15.661-9.235-23.49l13.433-13.421    l23.463,9.222l3.66-6.326l-19.718-15.689l4.922-18.356l24.91-3.745v-7.318l-24.91-3.744l-4.922-18.357l19.718-15.689l-3.66-6.325    l-23.463,9.22l-13.433-13.419l9.235-23.491l-6.342-3.658L413.994,56.84l-18.354-4.908l-3.747-24.909h-7.305l-3.744,24.909    l-18.355,4.908l-15.703-19.717l-6.327,3.658l9.222,23.491l-13.419,13.419l-23.491-9.248l-3.66,6.354    C315.691,80.018,322.26,85.266,328.827,90.486z M292.101,367.949h-80.627l-16.116,61.224h112.845L292.101,367.949z     M254.922,339.522c-0.823-0.823-1.93-1.306-3.135-1.306c-1.149,0-2.213,0.455-2.994,1.164l-0.126,0.142    c-0.795,0.794-1.292,1.9-1.292,3.12c0,1.191,0.511,2.299,1.306,3.092c0.765,0.795,1.872,1.306,3.106,1.306    c1.149,0,2.198-0.454,2.965-1.163l0.14-0.143c0.795-0.793,1.306-1.9,1.306-3.092C256.198,341.395,255.702,340.316,254.922,339.522    z M104.218,131.852c-1.929,0-3.489-1.563-3.489-3.49c0-1.929,1.56-3.49,3.489-3.49h49.791c1.914,0,3.488,1.562,3.488,3.49    c0,1.928-1.574,3.49-3.488,3.49H104.218z M104.218,150.49c-1.929,0-3.489-1.561-3.489-3.49c0-1.928,1.56-3.488,3.489-3.488h99.566    c1.915,0,3.49,1.561,3.49,3.488c0,1.93-1.576,3.49-3.49,3.49H104.218z M104.218,169.129c-1.929,0-3.489-1.56-3.489-3.488    c0-1.93,1.56-3.49,3.489-3.49h99.566c1.915,0,3.49,1.561,3.49,3.49c0,1.929-1.576,3.488-3.49,3.488H104.218z M104.218,240.367    c-1.929,0-3.489-1.561-3.489-3.488c0-1.931,1.56-3.49,3.489-3.49h67.338c1.915,0,3.488,1.56,3.488,3.49    c0,1.928-1.574,3.488-3.488,3.488H104.218z M104.218,259.008c-1.929,0-3.489-1.563-3.489-3.49c0-1.929,1.56-3.49,3.489-3.49    h134.675c1.915,0,3.488,1.562,3.488,3.49c0,1.928-1.574,3.49-3.488,3.49H104.218z M104.218,277.646    c-1.929,0-3.489-1.561-3.489-3.49c0-1.928,1.56-3.488,3.489-3.488h134.675c1.915,0,3.488,1.561,3.488,3.488    c0,1.93-1.574,3.49-3.488,3.49H104.218z M44.953,187.428c0,1.93-1.56,3.49-3.476,3.49c-1.929,0-3.488-1.561-3.488-3.49V83.793    c0-7.406,3.021-14.102,7.872-18.953c4.852-4.851,11.548-7.858,18.938-7.858h59.565c1.914,0,3.488,1.56,3.488,3.46    c0,1.931-1.574,3.49-3.488,3.49H64.797c-5.461,0-10.425,2.241-14,5.846c-3.604,3.574-5.845,8.539-5.845,14.016V187.428z     M41.577,454.904c-1.915,0-3.49-1.56-3.49-3.49c0-1.929,1.576-3.488,3.49-3.488H348.87c1.915,0,3.49,1.56,3.49,3.488    c0,1.931-1.575,3.49-3.49,3.49H41.577z M221.516,484.978c-1.915,0-3.476-1.59-3.476-3.49c0-1.929,1.562-3.488,3.476-3.488h212.636    c1.93,0,3.49,1.56,3.49,3.488c0,1.9-1.561,3.49-3.49,3.49H221.516z M455.926,484.978c-1.929,0-3.49-1.59-3.49-3.49    c0-1.929,1.562-3.488,3.49-3.488h26.583c1.916,0,3.49,1.56,3.49,3.488c0,1.9-1.574,3.49-3.49,3.49H455.926z M29.492,484.409    c-1.93,0-3.49-1.589-3.49-3.489c0-1.93,1.56-3.49,3.49-3.49h100.742c1.93,0,3.49,1.561,3.49,3.49c0,1.9-1.56,3.489-3.49,3.489    H29.492z M251.787,331.238c3.12,0,5.971,1.275,8.027,3.348l0.114,0.113c2,2.042,3.234,4.852,3.234,7.943    c0,3.121-1.276,5.987-3.333,8.029l-0.256,0.255c-2.043,1.9-4.794,3.092-7.787,3.092c-3.136,0-5.986-1.276-8.044-3.347    c-2.071-2.042-3.346-4.908-3.346-8.029c0-3.148,1.275-6.014,3.332-8.057l0.242-0.228    C246.014,332.43,248.765,331.238,251.787,331.238z" style="fill-rule:evenodd;clip-rule:evenodd;"/></g></g><g id="Layer_1"/></svg>